<svg xmlns:inkscape="http://www.inkscape.org/namespaces/inkscape" xmlns:sodipodi="http://sodipodi.sourceforge.net/DTD/sodipodi-0.dtd" xmlns="http://www.w3.org/2000/svg" xmlns:svg="http://www.w3.org/2000/svg" version="1.1" id="svg1" sodipodi:docname="Gate for Security.ai" viewBox="532.48 1015.75 1624.12 638.36">
  <defs id="defs1">
    <clipPath clipPathUnits="userSpaceOnUse" id="clipPath2">
      <path d="M 0,2000 H 2000 V 0 H 0 Z" transform="translate(-782.51364,-1216.047)" id="path2"/>
    </clipPath>
    <clipPath clipPathUnits="userSpaceOnUse" id="clipPath4">
      <path d="M 0,2000 H 2000 V 0 H 0 Z" transform="translate(-1121.8903,-1109.007)" id="path4"/>
    </clipPath>
    <clipPath clipPathUnits="userSpaceOnUse" id="clipPath6">
      <path d="M 0,2000 H 2000 V 0 H 0 Z" transform="translate(-1590.0774,-1090.4483)" id="path6"/>
    </clipPath>
    <clipPath clipPathUnits="userSpaceOnUse" id="clipPath8">
      <path d="M 0,2000 H 2000 V 0 H 0 Z" transform="translate(-1184.3892,-1014.935)" id="path8"/>
    </clipPath>
    <clipPath clipPathUnits="userSpaceOnUse" id="clipPath10">
      <path d="M 0,2000 H 2000 V 0 H 0 Z" transform="translate(-621.77552,-856.2696)" id="path10"/>
    </clipPath>
    <clipPath clipPathUnits="userSpaceOnUse" id="clipPath12">
      <path d="M 0,2000 H 2000 V 0 H 0 Z" transform="translate(-583.52872,-994.4427)" id="path12"/>
    </clipPath>
    <clipPath clipPathUnits="userSpaceOnUse" id="clipPath14">
      <path d="M 0,2000 H 2000 V 0 H 0 Z" transform="translate(-569.63791,-1106.4971)" id="path14"/>
    </clipPath>
    <clipPath clipPathUnits="userSpaceOnUse" id="clipPath16">
      <path d="M 0,2000 H 2000 V 0 H 0 Z" transform="translate(-634.90112,-991.33785)" id="path16"/>
    </clipPath>
    <clipPath clipPathUnits="userSpaceOnUse" id="clipPath18">
      <path d="M 0,2000 H 2000 V 0 H 0 Z" transform="translate(-598.08721,-1077.8463)" id="path18"/>
    </clipPath>
    <clipPath clipPathUnits="userSpaceOnUse" id="clipPath20">
      <path d="M 0,2000 H 2000 V 0 H 0 Z" transform="translate(-635.15561,-1023.1731)" id="path20"/>
    </clipPath>
    <clipPath clipPathUnits="userSpaceOnUse" id="clipPath22">
      <path d="M 0,2000 H 2000 V 0 H 0 Z" transform="translate(-663.45221,-994.43205)" id="path22"/>
    </clipPath>
    <clipPath clipPathUnits="userSpaceOnUse" id="clipPath24">
      <path d="M 0,2000 H 2000 V 0 H 0 Z" transform="translate(-535.67971,-966.2205)" id="path24"/>
    </clipPath>
    <clipPath clipPathUnits="userSpaceOnUse" id="clipPath26">
      <path d="M 0,2000 H 2000 V 0 H 0 Z" transform="translate(-714.73192,-1048.9592)" id="path26"/>
    </clipPath>
    <clipPath clipPathUnits="userSpaceOnUse" id="clipPath28">
      <path d="M 0,2000 H 2000 V 0 H 0 Z" transform="translate(-694.06432,-1060.0508)" id="path28"/>
    </clipPath>
    <clipPath clipPathUnits="userSpaceOnUse" id="clipPath30">
      <path d="M 0,2000 H 2000 V 0 H 0 Z" transform="translate(-725.19412,-991.1187)" id="path30"/>
    </clipPath>
    <clipPath clipPathUnits="userSpaceOnUse" id="clipPath32">
      <path d="M 0,2000 H 2000 V 0 H 0 Z" transform="translate(-583.52872,-994.4427)" id="path32"/>
    </clipPath>
    <clipPath clipPathUnits="userSpaceOnUse" id="clipPath34">
      <path d="M 0,2000 H 2000 V 0 H 0 Z" transform="translate(-608.29352,-1106.4719)" id="path34"/>
    </clipPath>
    <clipPath clipPathUnits="userSpaceOnUse" id="clipPath36">
      <path d="M 0,2000 H 2000 V 0 H 0 Z" transform="translate(-726.95062,-994.46655)" id="path36"/>
    </clipPath>
    <clipPath clipPathUnits="userSpaceOnUse" id="clipPath38">
      <path d="M 0,2000 H 2000 V 0 H 0 Z" transform="translate(-554.66711,-966.069)" id="path38"/>
    </clipPath>
    <clipPath clipPathUnits="userSpaceOnUse" id="clipPath40">
      <path d="M 0,2000 H 2000 V 0 H 0 Z" transform="translate(-583.70911,-1022.6933)" id="path40"/>
    </clipPath>
    <clipPath clipPathUnits="userSpaceOnUse" id="clipPath42">
      <path d="M 0,2000 H 2000 V 0 H 0 Z" transform="translate(-953.395,-820.5153)" id="path42"/>
    </clipPath>
    <clipPath clipPathUnits="userSpaceOnUse" id="clipPath44">
      <path d="M 0,2000 H 2000 V 0 H 0 Z" transform="translate(-606.00491,-1109.6339)" id="path44"/>
    </clipPath>
    <clipPath clipPathUnits="userSpaceOnUse" id="clipPath46">
      <path d="M 0,2000 H 2000 V 0 H 0 Z" transform="translate(-1309.9594,-822.6318)" id="path46"/>
    </clipPath>
    <clipPath clipPathUnits="userSpaceOnUse" id="clipPath48">
      <path d="M 0,2000 H 2000 V 0 H 0 Z" transform="translate(-1347.7284,-798.34852)" id="path48"/>
    </clipPath>
    <clipPath clipPathUnits="userSpaceOnUse" id="clipPath50">
      <path d="M 0,2000 H 2000 V 0 H 0 Z" transform="translate(-1070.1654,-798.35234)" id="path50"/>
    </clipPath>
    <clipPath clipPathUnits="userSpaceOnUse" id="clipPath52">
      <path d="M 0,2000 H 2000 V 0 H 0 Z" transform="translate(-987.40412,-797.16982)" id="path52"/>
    </clipPath>
    <clipPath clipPathUnits="userSpaceOnUse" id="clipPath54">
      <path d="M 0,2000 H 2000 V 0 H 0 Z" transform="translate(-1196.4553,-798.44069)" id="path54"/>
    </clipPath>
    <clipPath clipPathUnits="userSpaceOnUse" id="clipPath56">
      <path d="M 0,2000 H 2000 V 0 H 0 Z" transform="translate(-1571.9013,-816.03675)" id="path56"/>
    </clipPath>
    <clipPath clipPathUnits="userSpaceOnUse" id="clipPath58">
      <path d="M 0,2000 H 2000 V 0 H 0 Z" transform="translate(-1462.9233,-783.97582)" id="path58"/>
    </clipPath>
    <clipPath clipPathUnits="userSpaceOnUse" id="clipPath60">
      <path d="M 0,2000 H 2000 V 0 H 0 Z" transform="translate(-1413.591,-786.60989)" id="path60"/>
    </clipPath>
    <clipPath clipPathUnits="userSpaceOnUse" id="clipPath62">
      <path d="M 0,2000 H 2000 V 0 H 0 Z" transform="translate(-1130.1807,-816.70365)" id="path62"/>
    </clipPath>
    <clipPath clipPathUnits="userSpaceOnUse" id="clipPath64">
      <path d="M 0,2000 H 2000 V 0 H 0 Z" transform="translate(-1544.9631,-813.17692)" id="path64"/>
    </clipPath>
    <clipPath clipPathUnits="userSpaceOnUse" id="clipPath66">
      <path d="M 0,2000 H 2000 V 0 H 0 Z" transform="translate(-1038.417,-781.10249)" id="path66"/>
    </clipPath>
    <clipPath clipPathUnits="userSpaceOnUse" id="clipPath68">
      <path d="M 0,2000 H 2000 V 0 H 0 Z" transform="translate(-1486.2099,-796.77974)" id="path68"/>
    </clipPath>
    <clipPath clipPathUnits="userSpaceOnUse" id="clipPath70">
      <path d="M 0,2000 H 2000 V 0 H 0 Z" transform="translate(-1221.2596,-809.27332)" id="path70"/>
    </clipPath>
    <clipPath clipPathUnits="userSpaceOnUse" id="clipPath72">
      <path d="M 0,2000 H 2000 V 0 H 0 Z" transform="translate(-1520.401,-816.36262)" id="path72"/>
    </clipPath>
    <clipPath clipPathUnits="userSpaceOnUse" id="clipPath74">
      <path d="M 0,2000 H 2000 V 0 H 0 Z" transform="translate(-703.83252,-1051.9535)" id="path74"/>
    </clipPath>
    <clipPath clipPathUnits="userSpaceOnUse" id="clipPath76">
      <path d="M 0,2000 H 2000 V 0 H 0 Z" transform="translate(-1520.0919,-829.25565)" id="path76"/>
    </clipPath>
    <clipPath clipPathUnits="userSpaceOnUse" id="clipPath78">
      <path d="M 0,2000 H 2000 V 0 H 0 Z" transform="translate(-782.51364,-1216.047)" id="path78"/>
    </clipPath>
    <clipPath clipPathUnits="userSpaceOnUse" id="clipPath80">
      <path d="M 0,2000 H 2000 V 0 H 0 Z" transform="translate(-511.84612,-1169.8334)" id="path80"/>
    </clipPath>
    <clipPath clipPathUnits="userSpaceOnUse" id="clipPath82">
      <path d="M 0,2000 H 2000 V 0 H 0 Z" transform="translate(-621.77552,-856.2696)" id="path82"/>
    </clipPath>
    <clipPath clipPathUnits="userSpaceOnUse" id="clipPath84">
      <path d="M 0,2000 H 2000 V 0 H 0 Z" transform="translate(-789.20664,-1217.144)" id="path84"/>
    </clipPath>
  </defs>
  <sodipodi:namedview id="namedview1" pagecolor="#ffffff" bordercolor="#000000" borderopacity="0.25" inkscape:showpageshadow="2" inkscape:pageopacity="0.0" inkscape:pagecheckerboard="0" inkscape:deskcolor="#d1d1d1">
    <inkscape:page x="0" y="0" inkscape:label="1" id="page1" width="2666.6667" height="2666.6667" margin="1012.5493 510.06668 1015.76 532.47601" bleed="0"/>
  </sodipodi:namedview>
  <g id="layer-MC0" inkscape:groupmode="layer" inkscape:label="Layer 1">
    <path id="path1" d="M 0,0 C -6.211,0.532 -12.422,1.066 -18.634,1.596 -19.43,1.664 -20.227,1.748 -21.025,1.773 -33.813,2.171 -46.585,3.06 -59.391,2.896 -66.268,2.808 -73.148,2.9 -80.025,2.778 -85.14,2.687 -90.249,2.281 -95.364,2.198 c -8.642,-0.14 -17.247,-0.905 -25.867,-1.397 -5.261,-0.301 -10.502,-0.963 -15.752,-1.469 -4.454,-0.429 -8.913,-0.825 -13.361,-1.314 -3.81,-0.419 -7.61,-0.934 -11.411,-1.435 -2.851,-0.375 -5.692,-0.816 -8.543,-1.193 -17.903,-2.367 -35.64,-5.621 -53.26,-9.585 -22.29,-5.016 -44.315,-10.947 -65.971,-18.245 -13.013,-4.385 -25.915,-9.063 -38.624,-14.269 -0.738,-0.302 -1.486,-0.583 -2.23,-0.871 -2.01,-0.779 -3.067,-2.208 -3.034,-4.4 0.016,-1.119 -0.013,-2.239 0.013,-3.357 0.096,-4.158 0.122,-8.319 0.331,-12.47 0.337,-6.704 0.76,-13.404 1.575,-20.072 0.408,-3.33 0.731,-6.671 1.11,-10.004 1.338,-11.751 3.318,-23.394 5.668,-34.985 4.354,-21.474 10.217,-42.522 17.471,-63.19 12.605,-35.913 29.395,-69.721 50.808,-101.223 13.154,-19.352 27.712,-37.552 43.846,-54.508 10.043,-10.556 20.562,-20.601 31.584,-30.12 3.145,-2.717 6.425,-5.278 9.671,-7.875 0.737,-0.589 1.591,-1.032 2.275,-1.468 1.535,0.017 2.574,0.795 3.684,1.399 7.308,3.976 14.333,8.414 21.169,13.146 14.874,10.294 29.093,21.422 42.584,33.483 10.024,8.962 19.615,18.365 28.84,28.139 15.287,16.195 29.169,33.525 41.787,51.876 13.064,19.003 24.709,38.831 34.42,59.748 12.066,25.992 21.708,52.853 28.362,80.765 2.408,10.102 4.505,20.262 6.317,30.48 0.976,5.501 1.523,11.077 2.399,16.598 1.154,7.267 1.746,14.596 2.49,21.905 1.086,10.665 1.393,21.378 1.448,32.095 0.004,0.794 0.06,1.588 0.117,2.38 0.008,0.11 0.14,0.266 0.249,0.305 0.37,0.132 0.693,0.013 0.767,-0.336 0.426,-2.025 0.923,-4.043 1.212,-6.089 0.826,-5.852 1.824,-11.679 2.265,-17.585 0.391,-5.258 1.041,-10.497 1.435,-15.755 0.287,-3.825 0.343,-7.668 0.501,-11.503 0.488,-11.834 0.282,-23.669 -0.374,-35.484 -0.337,-6.055 -0.617,-12.133 -1.481,-18.157 -0.453,-3.161 -0.705,-6.351 -1.057,-9.527 -1.268,-11.44 -3.265,-22.758 -5.601,-34.026 -3.864,-18.636 -9.065,-36.886 -15.505,-54.792 -6.498,-18.066 -14.172,-35.611 -23.231,-52.54 -3.315,-6.197 -6.624,-12.411 -10.264,-18.419 -10.863,-17.928 -22.682,-35.201 -35.92,-51.479 -6.764,-8.317 -13.768,-16.428 -21.138,-24.209 -10.56,-11.153 -21.417,-22.014 -32.941,-32.179 -20.292,-17.897 -41.584,-34.503 -64.254,-49.308 -2.676,-1.747 -5.34,-3.514 -8.008,-5.275 -1.206,-0.796 -2.445,-0.784 -3.573,0.054 -3.977,2.956 -7.988,5.874 -11.861,8.963 -18.783,14.979 -36.474,31.16 -53.125,48.477 -26.228,27.277 -49.91,56.587 -70.464,88.383 -21.343,33.017 -38.574,68.059 -51.581,105.166 -5.552,15.838 -10.054,31.982 -13.745,48.345 -2.108,9.345 -3.915,18.759 -5.189,28.264 -0.828,6.174 -1.809,12.331 -2.485,18.521 -0.625,5.717 -0.887,11.473 -1.395,17.204 -1.356,15.326 -0.906,30.68 -0.734,46.028 0.036,3.19 0.409,6.377 0.613,9.566 0.113,1.755 0.181,3.514 0.299,5.269 0.29,4.306 0.596,8.611 0.898,12.916 0.124,1.768 1.108,2.975 2.613,3.749 0.846,0.436 1.768,0.753 2.686,1.015 12.584,3.596 25.012,7.721 37.688,11.012 10.509,2.728 21.071,5.219 31.674,7.556 10.45,2.303 20.959,4.296 31.471,6.272 4.865,0.914 9.778,1.569 14.673,2.322 5.525,0.85 11.048,1.714 16.581,2.504 3.48,0.497 6.975,0.883 10.466,1.297 4.125,0.49 8.253,0.957 12.38,1.435 0.636,0.073 1.269,0.174 1.906,0.225 5.417,0.441 10.835,0.877 16.253,1.308 4.462,0.356 8.935,0.606 13.385,1.078 5.739,0.608 11.494,0.672 17.25,0.751 17.916,0.248 35.827,-0.446 53.742,-0.365 7.006,-0.661 14.064,-0.417 21.062,-1.301 4.437,-0.561 8.913,-0.812 13.364,-1.268 3.656,-0.375 7.311,-0.785 10.951,-1.289 5.854,-0.81 11.707,-1.64 17.538,-2.594 6.146,-1.005 12.285,-2.068 18.393,-3.279 C -24.37,9.472 -11.806,6.422 0.633,2.867 1.707,2.56 2.781,2.251 3.855,1.944 4.597,0.978 5.591,0.857 6.693,1.097 L 6.877,1.051 C 6.682,0.379 6.212,0.058 5.536,0.049 3.691,0.024 1.845,0.015 0,0" style="fill:#253846;fill-opacity:1;fill-rule:nonzero;stroke:none" transform="matrix(1.3333333,0,0,-1.3333333,1043.3515,1045.2707)" clip-path="url(#clipPath2)"/>
    <path id="path3" d="m 0,0 c -0.232,-0.424 -0.329,-0.761 -0.547,-0.975 -9.697,-9.523 -19.403,-19.037 -29.119,-28.541 -0.334,-0.326 -0.778,-0.54 -1.128,-0.777 -1.107,0.163 -1.685,0.984 -2.367,1.638 -3.584,3.436 -7.397,6.594 -11.392,9.539 -10.959,8.077 -23.119,13.556 -36.391,16.471 -6.241,1.372 -12.584,2.267 -19.006,2.278 -4.317,0.007 -8.649,0.156 -12.948,-0.148 -19.537,-1.381 -37.587,-7.072 -53.399,-18.967 -14.349,-10.794 -24.268,-24.801 -30.099,-41.742 -4.164,-12.094 -5.512,-24.56 -5.097,-37.294 0.373,-11.462 2.64,-22.502 6.988,-33.099 7.738,-18.856 20.525,-33.325 38.167,-43.494 9.927,-5.722 20.638,-9.332 31.881,-11.341 6.94,-1.239 13.971,-1.575 21.019,-1.525 9.304,0.067 18.5,1.029 27.536,3.297 8.557,2.149 16.742,5.261 24.447,9.594 0.774,0.435 1.201,1.071 1.237,1.903 0.063,1.437 0.036,2.877 0.036,4.316 0.001,24.145 0.002,48.289 -10e-4,72.434 0,5.862 -0.438,5.468 5.396,5.465 12.634,-0.008 25.268,0.002 37.902,-0.013 0.944,-0.001 1.895,-0.105 2.828,-0.25 0.239,-0.037 0.482,-0.383 0.618,-0.642 0.141,-0.27 0.209,-0.605 0.216,-0.914 0.03,-1.279 0.03,-2.558 0.03,-3.837 10e-4,-31.98 10e-4,-63.959 10e-4,-95.939 v -4.494 c -0.855,-1.627 -2.132,-2.355 -3.262,-3.209 -8.454,-6.38 -17.56,-11.672 -27.223,-15.981 -12.146,-5.416 -24.757,-9.369 -37.839,-11.841 -6.915,-1.307 -13.851,-2.303 -20.869,-2.891 -5.428,-0.454 -10.846,-0.688 -16.284,-0.686 -9.615,0.004 -19.13,0.983 -28.603,2.63 -14.58,2.536 -28.487,7.071 -41.674,13.754 -13.957,7.073 -26.373,16.254 -37.071,27.7 -13.647,14.599 -23.414,31.462 -29.342,50.544 -2.326,7.487 -4.014,15.107 -4.988,22.897 -0.894,7.146 -1.583,14.3 -1.443,21.504 0.453,23.38 5.576,45.569 17.007,66.133 8.258,14.858 19.021,27.605 32.29,38.221 16.747,13.397 35.717,22.191 56.519,27.185 6.845,1.643 13.772,2.902 20.763,3.53 9.547,0.858 19.129,1.609 28.727,0.553 0.477,-0.053 0.958,-0.065 1.437,-0.08 8.173,-0.253 16.229,-1.45 24.217,-3.107 13.684,-2.839 26.736,-7.433 38.997,-14.204 C -20.255,19.202 -9.989,11.153 -1.071,1.389 -0.664,0.942 -0.328,0.429 0,0" style="fill:#263847;fill-opacity:1;fill-rule:nonzero;stroke:none" transform="matrix(1.3333333,0,0,-1.3333333,1495.8537,1187.9907)" clip-path="url(#clipPath4)"/>
    <path id="path5" d="m 0,0 c -1.044,0.569 -2.16,1.169 -3.27,1.782 -13.51,7.47 -27.828,12.819 -42.924,15.989 -5.774,1.212 -11.612,2.234 -17.548,2.426 -1.917,0.062 -3.835,0.183 -5.747,0.345 -2.876,0.244 -5.742,0.205 -8.621,-0.019 -5.097,-0.398 -10.21,-0.509 -15.27,-1.413 -7.278,-1.3 -14.32,-3.26 -20.822,-6.865 -4.53,-2.512 -8.464,-5.728 -11.483,-9.986 -3.32,-4.681 -5.19,-9.866 -5.41,-15.619 -0.111,-2.881 -0.162,-5.771 0.551,-8.587 1.124,-4.431 3.33,-8.269 6.547,-11.533 3.296,-3.342 7.184,-5.83 11.321,-7.968 5.41,-2.798 11.128,-4.826 16.927,-6.621 8.543,-2.644 17.251,-4.673 25.94,-6.769 11.17,-2.694 22.372,-5.268 33.36,-8.658 7.786,-2.402 15.453,-5.127 22.81,-8.66 7.818,-3.755 15.153,-8.245 21.554,-14.162 9.202,-8.506 15.138,-18.851 17.718,-31.131 1.254,-5.972 1.921,-11.996 1.694,-18.091 -0.763,-20.502 -8.511,-37.783 -23.878,-51.539 -8.081,-7.233 -17.346,-12.491 -27.376,-16.461 -8.041,-3.182 -16.365,-5.352 -24.88,-6.867 -13.762,-2.448 -27.628,-3.197 -41.557,-2.487 -9.572,0.488 -19.087,1.602 -28.535,3.366 -12.759,2.38 -25.179,5.85 -37.179,10.777 -8.593,3.529 -16.827,7.756 -24.369,13.233 -1.552,1.126 -3.067,2.304 -4.563,3.502 -0.357,0.286 -0.57,0.75 -0.955,1.276 0.493,1.278 0.957,2.627 1.525,3.931 7.861,18.062 14.073,31.679 15.292,33.52 0.077,0.116 0.253,0.167 0.521,0.336 0.6,-0.401 1.277,-0.81 1.907,-1.28 13.757,-10.25 29.145,-17.108 45.547,-21.824 7.53,-2.165 15.205,-3.739 22.979,-4.667 8.1,-0.967 16.252,-1.529 24.415,-0.979 7.971,0.538 15.922,1.296 23.648,3.55 4.153,1.212 8.179,2.702 11.982,4.781 3.252,1.777 6.225,3.921 8.749,6.638 6.538,7.034 8.925,15.276 7.254,24.75 -0.924,5.242 -3.444,9.568 -7.108,13.307 -2.826,2.883 -6.173,5.067 -9.684,6.996 -4.491,2.467 -9.24,4.342 -14.085,5.992 -7.866,2.677 -15.914,4.7 -23.969,6.697 -10.378,2.573 -20.785,5.035 -31.13,7.734 -9.583,2.501 -18.974,5.628 -28.052,9.624 -6.599,2.905 -12.889,6.37 -18.702,10.656 -9.754,7.19 -17.131,16.222 -21.399,27.661 -1.908,5.114 -3.102,10.382 -3.703,15.808 -0.407,3.662 -0.745,7.317 -0.625,11.002 0.525,16.12 5.236,30.78 15.357,43.502 6.454,8.113 14.366,14.531 23.39,19.583 8.835,4.947 18.249,8.436 28.075,10.801 9.181,2.21 18.483,3.664 27.935,4.06 3.513,0.148 7.022,0.469 10.535,0.529 8.485,0.146 16.925,-0.501 25.354,-1.476 10.021,-1.16 19.863,-3.153 29.542,-5.953 9.841,-2.847 19.359,-6.521 28.379,-11.42 0.842,-0.457 1.723,-0.853 2.529,-1.365 6.961,-4.421 6.229,-2.064 3.252,-9.656 C 9.839,22.141 5.702,12.274 1.673,2.365 1.314,1.482 1.109,0.512 0,0" style="fill:#263847;fill-opacity:1;fill-rule:nonzero;stroke:none" transform="matrix(1.3333333,0,0,-1.3333333,2120.1032,1212.7357)" clip-path="url(#clipPath6)"/>
    <path id="path7" d="m 0,0 c 0,42.533 -0.001,85.067 0.003,127.6 0.001,1.596 0.04,3.192 0.086,4.788 0.017,0.589 0.66,1.213 1.252,1.226 1.598,0.035 3.197,0.061 4.796,0.061 51.176,0.003 102.353,0.003 153.53,0.003 10.555,0 21.11,0.003 31.665,-0.006 0.957,-0.001 1.919,-0.038 2.867,-0.15 0.251,-0.03 0.615,-0.369 0.662,-0.617 0.148,-0.777 0.23,-1.577 0.231,-2.369 0.015,-8.794 0.01,-17.589 0.01,-26.383 0,-3.198 0.009,-6.396 -0.01,-9.594 -0.003,-0.634 -0.058,-1.281 -0.202,-1.895 -0.061,-0.26 -0.404,-0.63 -0.639,-0.645 -1.593,-0.101 -3.191,-0.16 -4.787,-0.16 -44.619,-0.008 -89.239,-0.006 -133.859,-0.009 -1.597,0 -3.194,-0.029 -4.791,-0.068 C 50.198,91.767 49.577,91.16 49.548,90.577 49.509,89.779 49.476,88.98 49.476,88.182 49.472,63.557 49.473,38.933 49.473,14.308 c 0,-0.16 0.005,-0.32 0,-0.479 -0.086,-2.702 0.371,-3.023 2.987,-2.992 1.279,0.015 2.559,0.002 3.838,0.002 38.702,0 77.405,0 116.107,0 1.279,0 2.559,0.013 3.838,-0.006 2.179,-0.032 2.466,-0.301 2.468,-2.511 0.012,-12.313 0.012,-24.625 10e-4,-36.937 -0.002,-2.472 -0.123,-2.564 -2.806,-2.594 -1.28,-0.014 -2.559,-0.003 -3.839,-0.003 -38.702,0 -77.404,0 -116.106,0 -1.28,0 -2.559,0.002 -3.839,-0.003 -2.059,-0.008 -2.706,-0.175 -2.652,-2.865 0.026,-1.279 0.003,-2.558 0.003,-3.838 0,-29.901 10e-4,-59.802 -0.003,-89.703 0,-1.597 -0.034,-3.195 -0.076,-4.791 -0.017,-0.667 -0.563,-1.252 -1.162,-1.279 -0.798,-0.037 -1.597,-0.065 -2.396,-0.065 -14.073,-0.004 -28.147,-0.004 -42.221,0 -0.798,0 -1.598,0.028 -2.396,0.067 -0.602,0.029 -1.104,0.609 -1.149,1.297 -0.031,0.478 -0.062,0.956 -0.065,1.434 C -0.005,-129.679 0,-128.399 0,-127.12 0,-84.747 0,-42.373 0,0" style="fill:#263847;fill-opacity:1;fill-rule:nonzero;stroke:none" transform="matrix(1.3333333,0,0,-1.3333333,1579.1856,1313.42)" clip-path="url(#clipPath8)"/>
    <path id="path9" d="m 0,0 c 1.051,1.193 2.058,2.429 3.163,3.57 3.111,3.21 6.279,6.366 9.396,9.57 11.698,12.025 22.727,24.648 33.373,37.603 14.604,17.771 28.162,36.319 40.595,55.674 3.879,6.039 7.538,12.219 11.273,18.349 0.322,0.527 0.459,1.167 0.682,1.755 0,0 -0.133,-0.017 -0.133,-0.017 0.989,0.288 1.066,1.251 1.461,1.978 1.677,1.854 2.695,4.081 3.609,6.367 0.728,1.059 1.536,2.075 1.806,3.379 l -0.05,-0.031 c 0.605,0.929 1.281,1.82 1.804,2.793 8.395,15.62 16.123,31.554 22.233,48.22 5.217,14.231 10.232,28.535 13.772,43.302 1.749,7.294 3.248,14.635 4.502,22.035 1.549,9.143 2.529,18.348 3.407,27.567 0.317,3.334 0.309,6.703 0.349,10.058 0.067,5.752 0.058,11.505 0.074,17.257 0.002,0.638 -0.033,1.277 -0.062,1.915 -0.049,1.095 -0.686,1.835 -1.655,2.111 -2.607,0.74 -5.216,1.519 -7.875,2.01 -7.373,1.361 -14.744,2.786 -22.168,3.803 -6.953,0.951 -13.917,1.9 -20.938,2.354 -5.575,0.36 -11.13,1.033 -16.698,1.52 -1.909,0.167 -3.834,0.145 -5.746,0.287 -19.149,1.416 -38.325,1.258 -57.502,0.969 -6.708,-0.101 -13.423,-0.082 -20.114,-0.75 -2.223,-0.222 -4.47,-0.193 -6.704,-0.321 -2.55,-0.146 -5.099,-0.335 -7.648,-0.512 -0.956,-0.067 -1.911,-0.162 -2.867,-0.226 -6.375,-0.426 -12.756,-0.782 -19.125,-1.288 -4.933,-0.393 -9.852,-0.971 -14.777,-1.464 -4.449,-0.446 -8.902,-0.854 -13.346,-1.342 -4.124,-0.453 -8.246,-0.938 -12.356,-1.502 -7.903,-1.085 -15.798,-2.232 -23.696,-3.359 -2.366,-0.338 -4.69,-1.032 -7.118,-0.849 l -0.85,0.779 c 5.267,1.295 10.518,2.667 15.808,3.866 6.691,1.515 13.406,2.925 20.125,4.312 5.783,1.193 11.581,2.32 17.382,3.42 6.273,1.19 12.547,2.376 18.841,3.448 5.193,0.884 10.414,1.606 15.626,2.384 2.368,0.353 4.743,0.663 7.115,0.998 6.008,0.85 12.011,1.736 18.024,2.544 3.642,0.489 7.299,0.862 10.949,1.286 4.284,0.498 8.567,0.999 12.852,1.489 1.112,0.127 2.227,0.227 3.343,0.321 2.707,0.227 5.414,0.469 8.125,0.66 6.697,0.472 13.395,0.931 20.094,1.374 4.626,0.307 9.251,0.715 13.883,0.834 7.834,0.201 15.674,0.198 23.51,0.307 2.397,0.033 4.791,0.197 7.187,0.221 3.677,0.037 7.357,0.06 11.033,-0.014 2.876,-0.058 5.75,-0.247 8.622,-0.425 3.51,-0.218 7.017,-0.486 10.525,-0.732 0.797,-0.056 1.595,-0.11 2.392,-0.17 5.42,-0.402 10.858,-0.648 16.256,-1.247 7.139,-0.792 14.28,-1.628 21.303,-3.236 1.39,-0.318 2.856,-0.297 4.275,-0.51 0.777,-0.116 1.555,-0.331 2.286,-0.621 0.606,-0.24 1.046,-0.763 1.133,-1.436 0.102,-0.789 0.155,-1.591 0.144,-2.387 -0.08,-5.755 -0.118,-11.508 -0.807,-17.242 -0.553,-4.599 -0.793,-9.236 -1.324,-13.838 -0.567,-4.919 -1.206,-9.835 -2.008,-14.72 -1.062,-6.46 -2.109,-12.923 -3.479,-19.332 -3.039,-14.217 -6.632,-28.282 -11.024,-42.146 -3.329,-10.509 -6.847,-20.947 -11.095,-31.123 -6.644,-15.917 -13.436,-31.758 -21.76,-46.908 C 117.14,122.615 103.274,101.382 87.311,81.506 73.862,64.761 59.149,49.206 43.597,34.433 31.178,22.637 17.982,11.754 4.094,1.72 3.195,1.071 2.222,0.524 1.283,-0.071 0.855,-0.047 0.428,-0.024 0,0" style="fill:#e3111b;fill-opacity:1;fill-rule:nonzero;stroke:none" transform="matrix(1.3333333,0,0,-1.3333333,829.034,1524.9739)" clip-path="url(#clipPath10)"/>
    <path id="path11" d="m 0,0 c -0.731,-0.903 -1.171,-1.889 -0.881,-3.083 -0.998,-0.545 -1.712,-1.376 -2.363,-2.284 -2.85,-3.971 -5.761,-7.893 -8.741,-11.771 -4.04,-5.258 -9.176,-8.52 -15.627,-9.815 0.618,0.718 1.106,1.655 1.878,2.113 2.128,1.261 3.466,3.188 4.974,5.045 2.519,3.104 3.791,6.56 3.799,10.521 0.002,1.118 -0.041,2.237 0.005,3.352 0.108,2.624 -0.77,4.985 -1.833,7.315 -0.749,1.642 -1.884,2.905 -3.376,3.935 -1.537,-1.944 -2.268,-4.295 -4.172,-5.817 -0.366,0.773 -0.409,1.628 -0.108,2.326 0.85,1.976 0.802,4.035 0.816,6.102 0.042,6 -0.006,5.984 -1.925,11.646 -1.486,4.384 -4.17,7.808 -7.922,10.445 -0.094,0.066 -0.276,0.008 -0.585,0.008 -0.351,-0.976 -0.81,-1.988 -1.08,-3.049 -0.812,-3.19 -3.487,-10.58 -4.931,-12.846 -1.62,-2.544 -3.376,-5.003 -5.136,-7.454 -2.136,-2.974 -4.052,-6.07 -5.215,-9.554 -0.65,-1.946 -1.108,-3.961 -1.565,-5.965 -0.314,-1.376 -0.477,-2.787 -0.728,-4.305 -0.456,0.301 -0.989,0.462 -1.189,0.813 -1.345,2.363 -2.444,4.837 -2.414,7.621 0.014,1.326 -0.299,2.524 -0.885,3.671 -0.116,0.228 -0.449,0.529 -0.629,0.497 -0.269,-0.048 -0.591,-0.313 -0.714,-0.57 -0.828,-1.726 -0.985,-3.644 -1.461,-5.47 -0.192,-0.735 -0.189,-1.683 0.117,-2.355 0.802,-1.761 0.776,-3.706 1.496,-5.504 0.718,-1.792 1.479,-3.462 2.671,-5.002 1.659,-2.143 3.246,-4.279 5.668,-5.688 1.497,-0.871 2.811,-2.056 4.207,-3.1 -3.211,-0.771 -6.239,-0.516 -9.221,1.114 -3.078,1.683 -6.232,3.184 -9.052,5.335 -3.106,2.369 -5.556,5.266 -7.607,8.528 -2.929,4.655 -4.674,9.781 -5.58,15.171 -1.169,6.947 -1.172,8.663 -1.143,15.73 0.029,6.916 2.119,13.168 5.81,18.941 0.133,0.208 0.484,0.277 0.733,0.411 0.942,-0.809 0.932,-1.961 1.139,-3.05 1.022,-5.378 2.844,-10.451 5.86,-15.053 0.169,-0.257 0.414,-0.551 0.681,-0.628 0.239,-0.068 0.755,0.077 0.807,0.238 0.289,0.906 0.429,1.86 0.703,2.772 1.291,4.295 3.005,8.411 5.318,12.261 1.644,2.737 3.389,5.414 4.97,8.186 1.897,3.324 3.767,6.671 5.467,10.098 2.576,5.192 2.847,10.76 2.089,16.382 -0.207,1.539 -1.011,3.003 -1.582,4.486 -0.337,0.877 -0.753,1.722 -1.112,2.533 0.592,0.634 1.226,0.611 1.842,0.416 3.207,-1.019 6.231,-2.469 9.116,-4.17 6.936,-4.089 13.135,-9.059 18.116,-15.455 0.475,-0.61 1.169,-1.051 1.761,-1.57 0.008,-0.629 -0.085,-1.281 0.053,-1.881 0.14,-0.607 0.527,-1.153 0.775,-1.739 2.432,-5.763 4.253,-11.659 3.947,-18.023 -0.023,-0.473 0.051,-0.951 0.079,-1.415 0.74,-0.2 1.221,0.155 1.613,0.674 1.672,2.219 2.456,4.784 2.902,7.482 0.129,0.777 0.266,1.559 0.502,2.306 0.051,0.16 0.665,0.345 0.812,0.236 0.498,-0.368 1.038,-0.79 1.32,-1.321 1.493,-2.814 2.883,-5.682 4.368,-8.5 0.74,-1.403 1.337,-2.909 2.543,-4.023 0.091,-0.469 0.088,-0.987 0.298,-1.395 0.198,-0.385 0.588,-0.883 0.949,-0.934 1.098,-0.155 2.222,-0.15 3.336,-0.15 11.965,-0.008 23.93,-0.003 35.895,-0.008 1.275,0 2.552,-0.005 3.824,-0.077 0.25,-0.014 0.481,-0.347 0.72,-0.533 -1.59,-0.033 -3.18,-0.094 -4.77,-0.095 C 28.968,25.05 17.505,25.057 6.042,25.048 4.77,25.048 3.499,24.985 2.228,24.936 1.85,24.922 1.31,24.36 1.321,23.995 1.346,23.205 1.296,22.395 1.453,21.629 2.457,16.742 2.365,11.887 1.477,6.976 1.052,4.63 0.441,2.335 0,0" style="fill:#ef4638;fill-opacity:1;fill-rule:nonzero;stroke:none" transform="matrix(1.3333333,0,0,-1.3333333,778.03827,1340.7431)" clip-path="url(#clipPath12)"/>
    <path id="path13" d="m 0,0 c 9.267,0 18.535,0.001 27.802,-0.002 0.638,0 1.276,-0.02 1.913,-0.051 0.661,-0.032 1.229,-0.563 1.279,-1.179 0.039,-0.476 0.091,-0.954 0.091,-1.431 0.006,-6.709 0.008,-13.419 -0.001,-20.129 -0.001,-0.636 0.007,-1.294 -0.147,-1.901 -0.108,-0.423 -0.392,-0.88 -0.977,-0.904 -0.795,-0.033 -1.59,-0.109 -2.384,-0.109 -18.535,-0.006 -37.07,-0.006 -55.605,0 -0.795,0 -1.59,0.063 -2.384,0.106 -0.563,0.031 -0.848,0.461 -0.991,0.893 -0.146,0.442 -0.138,0.946 -0.139,1.422 -0.006,7.03 -0.007,14.059 0.007,21.088 0,0.468 0.067,0.96 0.225,1.396 0.092,0.256 0.407,0.573 0.656,0.605 0.943,0.122 1.901,0.187 2.853,0.189 C -18.535,0.005 -9.267,0 0,0" style="fill:#2b3d4b;fill-opacity:1;fill-rule:nonzero;stroke:none" transform="matrix(1.3333333,0,0,-1.3333333,759.5172,1191.3372)" clip-path="url(#clipPath14)"/>
    <path id="path15" d="m 0,0 c 8.791,0 17.582,0.004 26.373,-0.004 1.277,-0.001 2.554,-0.048 3.83,-0.096 0.595,-0.023 1.126,-0.627 1.179,-1.282 0.025,-0.317 0.068,-0.635 0.068,-0.952 0.003,-7.032 0.005,-14.063 -0.008,-21.095 -0.001,-0.473 -0.054,-0.968 -0.204,-1.412 -0.09,-0.268 -0.392,-0.622 -0.636,-0.654 -0.945,-0.125 -1.906,-0.184 -2.861,-0.184 -18.382,-0.009 -36.763,-0.008 -55.144,-0.003 -0.797,0 -1.595,0.05 -2.391,0.097 -0.595,0.036 -1.137,0.631 -1.193,1.273 -0.028,0.317 -0.077,0.634 -0.078,0.952 -0.003,7.031 -0.006,14.063 0.008,21.094 0.002,0.47 0.083,0.961 0.241,1.401 0.096,0.266 0.391,0.612 0.636,0.647 0.941,0.133 1.897,0.208 2.848,0.21 C -18.221,0.005 -9.111,0 0,0" style="fill:#979fa6;fill-opacity:1;fill-rule:nonzero;stroke:none" transform="matrix(1.3333333,0,0,-1.3333333,846.5348,1344.8829)" clip-path="url(#clipPath16)"/>
    <path id="path17" d="m 0,0 c 9.107,0 18.213,0.002 27.32,-0.004 0.797,0 1.611,0.033 2.385,-0.118 0.379,-0.075 0.815,-0.472 0.987,-0.836 0.191,-0.405 0.144,-0.937 0.144,-1.414 0.007,-7.029 0.005,-14.057 0.002,-21.086 0,-0.317 -0.037,-0.635 -0.059,-0.953 -0.048,-0.669 -0.561,-1.249 -1.161,-1.28 -0.797,-0.04 -1.595,-0.08 -2.392,-0.08 -18.373,-0.004 -36.746,-0.005 -55.12,0.001 -0.795,0 -1.592,0.053 -2.387,0.11 -0.532,0.039 -0.829,0.428 -1.003,0.872 -0.113,0.288 -0.138,0.626 -0.139,0.941 -0.007,7.348 -0.007,14.696 -0.001,22.044 0,0.317 0.001,0.667 0.13,0.942 0.126,0.268 0.394,0.621 0.639,0.655 0.943,0.13 1.902,0.197 2.856,0.198 C -18.533,0.005 -9.266,0 0,0" style="fill:#263847;fill-opacity:1;fill-rule:nonzero;stroke:none" transform="matrix(1.3333333,0,0,-1.3333333,797.4496,1229.5383)" clip-path="url(#clipPath18)"/>
    <path id="path19" d="m 0,0 c -9.109,0 -18.217,-0.004 -27.326,0.006 -0.955,0.001 -1.926,-0.002 -2.859,0.165 -0.353,0.063 -0.735,0.555 -0.897,0.939 -0.176,0.419 -0.151,0.939 -0.151,1.415 -0.006,7.029 -0.005,14.059 0.008,21.089 0,0.475 0.037,0.971 0.183,1.416 0.087,0.266 0.399,0.611 0.646,0.643 0.946,0.123 1.907,0.179 2.862,0.18 18.217,0.009 36.434,0.009 54.651,10e-4 0.954,-10e-4 1.923,-0.009 2.856,-0.178 0.36,-0.065 0.756,-0.537 0.92,-0.916 0.18,-0.416 0.142,-0.94 0.143,-1.416 0.005,-7.03 0.004,-14.06 -0.008,-21.09 0,-0.474 -0.034,-0.971 -0.183,-1.413 C 30.757,0.58 30.433,0.256 30.179,0.221 29.236,0.089 28.278,0.01 27.326,0.008 18.217,-0.006 9.109,0 0,0" style="fill:#959ea4;fill-opacity:1;fill-rule:nonzero;stroke:none" transform="matrix(1.3333333,0,0,-1.3333333,846.87413,1302.4359)" clip-path="url(#clipPath20)"/>
    <path id="path21" d="m 0,0 c -8.943,0 -17.886,-0.003 -26.828,0.005 -0.956,0.001 -1.925,-0.007 -2.861,0.152 -0.367,0.063 -0.774,0.517 -0.954,0.892 -0.194,0.407 -0.194,0.931 -0.194,1.404 -0.01,6.706 -0.008,13.412 0.003,20.118 0,0.475 -0.021,1.003 0.172,1.41 0.177,0.373 0.585,0.767 0.971,0.882 0.596,0.177 1.26,0.161 1.896,0.161 18.524,0.007 37.049,0.007 55.573,0 0.636,0 1.3,0.017 1.896,-0.159 0.388,-0.113 0.799,-0.503 0.976,-0.876 0.193,-0.406 0.17,-0.935 0.17,-1.41 C 30.831,15.873 30.833,9.167 30.824,2.461 30.823,1.988 30.827,1.464 30.635,1.056 30.458,0.679 30.049,0.207 29.69,0.158 28.59,0.007 27.465,0.006 26.349,0.005 17.566,-0.004 8.783,0 0,0" style="fill:#959ea4;fill-opacity:1;fill-rule:nonzero;stroke:none" transform="matrix(1.3333333,0,0,-1.3333333,884.60293,1340.7573)" clip-path="url(#clipPath22)"/>
    <path id="path23" d="m 0,0 c -1.396,1.044 -2.71,2.23 -4.207,3.101 -2.422,1.408 -4.009,3.544 -5.668,5.688 -1.192,1.54 -1.953,3.209 -2.671,5.002 -0.72,1.798 -0.694,3.742 -1.496,5.503 -0.306,0.672 -0.309,1.62 -0.117,2.355 0.476,1.826 0.633,3.745 1.461,5.47 0.123,0.257 0.445,0.522 0.714,0.57 0.18,0.032 0.513,-0.269 0.629,-0.497 0.586,-1.147 0.899,-2.345 0.885,-3.67 -0.03,-2.785 1.069,-5.259 2.414,-7.621 0.2,-0.351 0.733,-0.513 1.189,-0.814 0.251,1.519 0.414,2.929 0.728,4.305 0.457,2.004 0.915,4.019 1.565,5.965 1.163,3.484 3.079,6.581 5.215,9.554 1.76,2.451 3.516,4.91 5.136,7.454 1.444,2.267 4.119,9.656 4.931,12.846 0.27,1.061 0.729,2.073 1.08,3.05 0.309,0 0.491,0.058 0.585,-0.009 3.752,-2.637 6.436,-6.06 7.922,-10.445 1.919,-5.662 1.967,-5.646 1.925,-11.646 -0.014,-2.066 0.034,-4.125 -0.816,-6.102 -0.301,-0.698 -0.258,-1.553 0.108,-2.325 1.904,1.521 2.635,3.873 4.172,5.816 1.492,-1.029 2.627,-2.292 3.376,-3.934 1.063,-2.33 1.941,-4.691 1.833,-7.316 C 30.847,21.185 30.89,20.066 30.888,18.949 30.88,14.988 29.608,11.531 27.089,8.427 25.581,6.57 24.243,4.643 22.115,3.382 21.343,2.925 20.855,1.987 20.237,1.269 19.821,0.796 19.404,0.322 18.987,-0.152 18.201,-0.228 17.415,-0.365 16.629,-0.37 12.02,-0.399 7.411,-0.419 2.802,-0.387 1.867,-0.38 0.934,-0.135 0,0" style="fill:#fdbc09;fill-opacity:1;fill-rule:nonzero;stroke:none" transform="matrix(1.3333333,0,0,-1.3333333,714.2396,1378.3727)" clip-path="url(#clipPath24)"/>
    <path id="path25" d="m 0,0 c 2.203,-1.997 4.54,-3.914 5.981,-6.665 3.795,-4.639 5.69,-10.212 7.707,-15.722 0.16,-0.439 0.213,-0.923 0.282,-1.391 0.17,-1.135 -0.42,-1.942 -1.459,-1.98 -0.957,-0.036 -1.915,-0.05 -2.872,-0.05 -16.927,-0.003 -33.854,-0.003 -50.78,0 -0.957,0 -1.915,0.021 -2.871,0.061 -0.875,0.036 -1.431,0.613 -1.442,1.546 -0.031,2.713 -0.039,5.427 -0.042,8.141 -0.006,4.47 -0.007,8.941 0.008,13.411 0.002,0.634 0.05,1.281 0.192,1.896 0.059,0.258 0.396,0.606 0.644,0.639 0.944,0.129 1.903,0.196 2.857,0.197 13.253,0.011 26.507,0.008 39.761,0.003 C -1.402,0.086 -0.771,0.034 0,0" style="fill:#bfc4c8;fill-opacity:1;fill-rule:nonzero;stroke:none" transform="matrix(1.3333333,0,0,-1.3333333,952.97587,1268.0544)" clip-path="url(#clipPath26)"/>
    <path id="path27" d="m 0,0 c 0.365,-2.287 0.186,-4.505 0.134,-6.715 -0.021,-0.867 -0.606,-1.387 -1.555,-1.42 -0.956,-0.033 -1.913,-0.043 -2.87,-0.043 -17.553,-0.002 -35.105,-0.004 -52.657,0.003 -1.115,0.001 -2.238,0.005 -3.338,0.153 -0.366,0.049 -0.795,0.493 -0.97,0.864 -0.192,0.405 -0.163,0.934 -0.164,1.409 -0.009,7.02 -0.01,14.04 -10e-4,21.059 0,0.475 -0.018,0.999 0.17,1.409 0.172,0.375 0.566,0.785 0.945,0.896 0.595,0.175 1.261,0.144 1.897,0.145 10.052,0.007 20.105,0.005 30.158,0.003 0.478,0 0.965,0.026 1.433,-0.052 0.649,-0.109 1.196,-0.467 1.54,-1.03 1.943,-3.178 2.873,-6.686 3.308,-10.346 0.131,-1.102 0.195,-2.213 0.327,-3.315 0.058,-0.495 0.826,-1.236 1.293,-1.292 0.629,-0.075 1.261,-0.159 1.892,-0.162 3.351,-0.019 6.702,-0.042 10.053,-0.009 C -5.675,1.585 -2.991,1.411 0,0" style="fill:#959ea4;fill-opacity:1;fill-rule:nonzero;stroke:none" transform="matrix(1.3333333,0,0,-1.3333333,925.41907,1253.2656)" clip-path="url(#clipPath28)"/>
    <path id="path29" d="m 0,0 c -0.914,-2.286 -1.932,-4.513 -3.608,-6.367 -1.389,-0.37 -1.389,-0.37 -1.461,-1.978 l 0.132,0.017 c -0.64,0.08 -1.304,0.143 -1.81,-0.337 -1.501,-1.427 -2.97,-2.886 -4.456,-4.329 -3.791,-3.68 -9.671,-7.346 -14.878,-9.109 -3.436,-1.163 -6.926,-2.168 -10.399,-3.22 -0.447,-0.135 -0.938,-0.174 -1.409,-0.173 -5.578,0.014 -11.156,0.04 -16.734,0.075 -0.63,0.004 -1.202,0.586 -1.255,1.183 -0.014,0.158 -0.074,0.314 -0.074,0.471 0,7.491 -0.001,14.982 0.014,22.473 0.002,0.91 0.592,1.513 1.444,1.548 0.955,0.04 1.911,0.062 2.866,0.062 C -36.004,0.319 -20.38,0.327 -4.757,0.304 -3.171,0.302 -1.586,0.106 0,0" style="fill:#bfc4c8;fill-opacity:1;fill-rule:nonzero;stroke:none" transform="matrix(1.3333333,0,0,-1.3333333,966.92547,1345.1751)" clip-path="url(#clipPath30)"/>
    <path id="path31" d="m 0,0 c 0.441,2.335 1.052,4.63 1.477,6.976 0.888,4.911 0.98,9.766 -0.024,14.653 -0.157,0.766 -0.107,1.576 -0.132,2.366 -0.011,0.365 0.529,0.927 0.907,0.941 1.271,0.049 2.542,0.112 3.814,0.112 11.463,0.009 22.926,0.002 34.39,0.01 1.59,0.001 3.18,0.062 4.77,0.095 0.079,-0.308 0.226,-0.617 0.226,-0.926 C 45.442,16.585 45.444,8.942 45.434,1.3 45.433,0.353 44.945,-0.076 43.945,-0.119 43.628,-0.133 43.309,-0.142 42.991,-0.147 42.673,-0.152 42.354,-0.15 42.035,-0.15 28.976,-0.15 15.917,-0.153 2.858,-0.144 1.905,-0.143 0.953,-0.05 0,0" style="fill:#253846;fill-opacity:1;fill-rule:nonzero;stroke:none" transform="matrix(1.3333333,0,0,-1.3333333,778.03827,1340.7431)" clip-path="url(#clipPath32)"/>
    <path id="path33" d="m 0,0 c 1.129,-2.238 2.134,-4.223 3.133,-6.212 0.429,-0.854 0.833,-1.722 1.271,-2.571 0.261,-0.506 1.09,-0.835 1.644,-0.657 1.208,0.389 2.43,0.749 3.61,1.212 3.428,1.343 7.062,1.944 10.644,2.438 4.584,0.633 9.176,0.076 13.698,-1.191 5.617,-1.573 10.623,-4.285 15.21,-7.757 2.659,-2.013 5.149,-4.304 6.647,-7.427 1.514,-3.159 1.502,-3.513 -2.005,-3.51 -18.206,0.016 -36.412,0.006 -54.618,0.012 -0.797,0 -1.594,0.049 -2.39,0.094 -0.595,0.034 -1.124,0.623 -1.179,1.273 -0.014,0.158 -0.058,0.315 -0.059,0.473 -0.004,7.344 -0.007,14.689 -10e-4,22.034 0,0.315 0.016,0.665 0.151,0.937 0.205,0.416 0.467,0.848 1.035,0.851 C -2.263,0.003 -1.316,0 0,0" style="fill:#979fa6;fill-opacity:1;fill-rule:nonzero;stroke:none" transform="matrix(1.3333333,0,0,-1.3333333,811.058,1191.3708)" clip-path="url(#clipPath34)"/>
    <path id="path35" d="m 0,0 0.049,0.032 c -6.236,-0.04 -12.472,-0.102 -18.708,-0.115 -9.56,-0.02 -9.69,-0.043 -9.875,0.586 -0.914,3.12 -0.303,6.324 -0.39,9.488 -0.109,3.995 -0.03,7.995 -0.023,11.992 0.002,0.798 0.038,1.596 0.079,2.393 0.033,0.659 0.569,1.245 1.16,1.285 0.637,0.043 1.275,0.098 1.912,0.099 8.476,0.006 16.953,0.007 25.429,0 C 0.27,25.759 0.908,25.703 1.545,25.657 2.132,25.614 2.668,25.022 2.703,24.361 2.745,23.565 2.779,22.767 2.783,21.969 2.793,19.57 2.655,17.163 2.817,14.775 3.072,11.006 2.302,7.478 0.578,4.177 -0.145,2.793 -0.163,1.44 0,0" style="fill:#bfc4c8;fill-opacity:1;fill-rule:nonzero;stroke:none" transform="matrix(1.3333333,0,0,-1.3333333,969.26747,1340.7113)" clip-path="url(#clipPath36)"/>
    <path id="path37" d="m 0,0 1.25,1.421 c 6.451,1.295 11.587,4.557 15.627,9.815 2.98,3.878 5.891,7.8 8.74,11.771 0.652,0.908 1.366,1.739 2.364,2.283 4.955,0.001 9.91,0.007 14.865,-0.006 0.795,-0.002 1.613,0.007 2.374,-0.181 0.352,-0.087 0.651,-0.6 0.861,-0.982 0.142,-0.256 0.113,-0.622 0.113,-0.939 C 46.201,16.15 46.205,9.118 46.197,2.086 46.196,1.611 46.175,1.114 46.036,0.667 45.896,0.218 45.568,-0.161 45.032,-0.206 44.397,-0.258 43.76,-0.316 43.124,-0.316 29.857,-0.323 16.59,-0.329 3.322,-0.307 2.215,-0.305 1.107,-0.107 0,0" style="fill:#2b3d4b;fill-opacity:1;fill-rule:nonzero;stroke:none" transform="matrix(1.3333333,0,0,-1.3333333,739.55613,1378.5747)" clip-path="url(#clipPath38)"/>
    <path id="path39" d="m 0,0 c -1.206,1.113 -1.804,2.62 -2.543,4.022 -1.485,2.818 -2.876,5.687 -4.368,8.501 -0.282,0.53 -0.823,0.952 -1.321,1.321 -0.146,0.108 -0.761,-0.076 -0.811,-0.237 C -9.279,12.86 -9.417,12.078 -9.545,11.302 -9.991,8.604 -10.775,6.039 -12.448,3.82 -12.839,3.3 -13.32,2.946 -14.06,3.145 c -0.029,0.465 -0.102,0.942 -0.08,1.415 0.307,6.364 -1.514,12.261 -3.947,18.023 -0.247,0.586 -0.634,1.133 -0.774,1.74 -0.138,0.599 -0.045,1.252 -0.053,1.881 11.33,0.014 22.66,0.03 33.99,0.036 0.94,0 1.533,-0.548 1.549,-1.413 0.034,-1.914 0.045,-3.828 0.047,-5.742 C 16.676,13.659 16.674,8.234 16.667,2.809 16.666,2.331 16.618,1.854 16.585,1.377 16.545,0.797 15.959,0.251 15.307,0.245 12.117,0.212 8.926,0.21 5.735,0.167 3.823,0.141 1.912,0.057 0,0" style="fill:#263847;fill-opacity:1;fill-rule:nonzero;stroke:none" transform="matrix(1.3333333,0,0,-1.3333333,778.2788,1303.0757)" clip-path="url(#clipPath40)"/>
    <path id="path41" d="m 0,0 c -0.227,-1.28 -1.166,-1.597 -1.992,-2.069 -0.518,-0.296 -0.987,-0.186 -1.281,0.169 -0.709,0.855 -1.323,1.789 -1.97,2.695 -1.33,1.861 -3.08,3.242 -5.078,4.291 -6.117,3.213 -15.755,4.217 -23.292,-2.465 -1.931,-1.713 -3.499,-3.743 -4.739,-5.985 -4.662,-8.425 -4.706,-20.085 1.745,-28.511 1.973,-2.578 4.296,-4.754 7.156,-6.261 6.579,-3.466 13.203,-3.274 19.717,0.174 1.534,0.812 2.98,1.898 4.247,3.092 4.361,4.111 3.589,3.021 3.636,8.201 0.016,1.749 -0.08,3.5 -0.185,5.247 -0.015,0.246 -0.344,0.618 -0.589,0.676 -0.613,0.147 -1.261,0.193 -1.896,0.2 -2.716,0.03 -5.432,0.009 -8.147,0.068 -0.43,0.009 -0.988,0.224 -1.247,0.54 -0.41,0.499 -0.394,1.183 -0.203,1.826 0.151,0.508 0.514,0.83 1.002,0.855 1.433,0.076 2.869,0.105 4.305,0.114 2.556,0.015 5.113,0.018 7.67,-10e-4 2.815,-0.021 2.936,-0.13 2.942,-2.97 0.015,-7.03 0.008,-14.059 -10e-4,-21.089 -0.001,-0.636 0.04,-1.314 -0.165,-1.892 -0.125,-0.352 -0.657,-0.607 -1.057,-0.796 -0.267,-0.125 -0.626,-0.077 -0.942,-0.072 -0.667,0.012 -1.356,0.558 -1.372,1.083 -0.043,1.435 -0.056,2.871 -0.116,4.306 -0.024,0.592 -0.137,1.18 -0.204,1.726 -0.925,0.115 -1.276,-0.493 -1.759,-0.875 -1.376,-1.087 -2.653,-2.347 -4.154,-3.223 -8.529,-4.982 -17.15,-4.968 -25.274,0.629 -15.929,10.972 -16.796,33.662 -2.609,46.022 4.382,3.817 9.57,5.637 15.377,5.737 2.578,0.044 5.127,-0.265 7.584,-0.966 C -7.075,8.815 -2.785,5.228 0,0" style="fill:#384654;fill-opacity:1;fill-rule:nonzero;stroke:none" transform="matrix(1.3333333,0,0,-1.3333333,1271.1933,1572.6463)" clip-path="url(#clipPath42)"/>
    <path id="path43" d="m 0,0 c -0.766,-0.05 -1.394,-0.125 -2.022,-0.126 -11.49,-0.007 -22.979,-0.006 -34.469,-0.001 -0.637,0.001 -1.299,-0.037 -1.9,0.126 -0.384,0.105 -0.742,0.501 -0.985,0.854 -0.159,0.231 -0.119,0.618 -0.12,0.935 -0.007,6.861 -0.011,13.721 -0.003,20.582 0,0.474 0.012,0.98 0.174,1.412 0.158,0.422 0.445,0.851 1.021,0.862 0.475,0.008 0.966,0.119 1.422,0.032 C -27.656,22.921 -19.166,19.48 -11.79,13.56 -7.41,10.044 -3.606,5.972 -0.359,1.388 -0.126,1.06 -0.137,0.559 0,0" style="fill:#2b3d4b;fill-opacity:1;fill-rule:nonzero;stroke:none" transform="matrix(1.3333333,0,0,-1.3333333,808.00653,1187.1548)" clip-path="url(#clipPath44)"/>
    <path id="path45" d="m 0,0 c -0.586,0.378 -1.155,0.654 -1.612,1.056 -3.679,3.238 -8.149,4.241 -12.851,4.522 -2.733,0.163 -5.441,-0.264 -8.059,-0.991 -3.802,-1.058 -6.424,-3.457 -7.465,-7.365 -0.459,-1.724 -0.447,-3.483 -0.069,-5.221 0.465,-2.134 1.65,-3.764 3.531,-4.907 1.936,-1.178 4.071,-1.848 6.228,-2.419 2.775,-0.736 5.599,-1.289 8.38,-2.006 2.313,-0.596 4.614,-1.257 6.884,-2.001 1.204,-0.395 2.355,-0.977 3.486,-1.561 5.247,-2.709 7.042,-7.494 6.449,-12.789 -0.537,-4.804 -3.026,-8.29 -7.413,-10.436 -3.076,-1.505 -6.338,-2.175 -9.706,-2.376 -7.9,-0.472 -15.227,1.207 -21.689,5.98 -0.512,0.379 -0.995,0.8 -1.476,1.22 -0.678,0.593 -0.797,1.344 -0.294,2.116 0.342,0.523 0.757,0.998 1.184,1.552 0.504,-0.216 1,-0.307 1.332,-0.589 7.079,-6.014 15.283,-7.544 24.241,-6.167 1.935,0.297 3.701,1.013 5.324,2.051 2.593,1.658 4.047,4.024 4.115,7.151 0.018,0.797 0.019,1.603 -0.079,2.392 -0.292,2.325 -1.287,4.312 -3.277,5.604 -1.327,0.861 -2.769,1.587 -4.237,2.182 -3.264,1.324 -6.717,2.011 -10.131,2.833 -2.636,0.635 -5.275,1.3 -7.843,2.159 -1.648,0.551 -3.249,1.349 -4.731,2.265 -2.577,1.594 -4.081,3.966 -4.508,7.007 -1.122,7.982 2.436,13.568 8.994,16.148 7.137,2.807 14.356,2.652 21.44,-0.456 C -2.076,6.175 -0.533,5.052 0.907,3.773 1.548,3.203 1.703,2.388 1.234,1.62 0.906,1.083 0.472,0.611 0,0" style="fill:#384654;fill-opacity:1;fill-rule:nonzero;stroke:none" transform="matrix(1.3333333,0,0,-1.3333333,1746.6125,1569.8243)" clip-path="url(#clipPath46)"/>
    <path id="path47" d="m 0,0 v -0.035 c 4.63,0 9.259,-0.013 13.888,0.007 1.475,0.006 1.978,0.637 1.781,2.065 C 14.97,7.111 12.38,11.048 8.04,13.609 2.802,16.699 -2.611,16.625 -7.812,13.375 -12.152,10.664 -14.334,6.518 -15.178,1.581 -15.325,0.718 -14.767,0.009 -13.886,0.006 -9.257,-0.007 -4.629,0 0,0 m 13.848,-11.634 c 0.939,-0.267 1.56,-0.417 2.162,-0.62 0.674,-0.228 0.948,-0.944 0.563,-1.52 -0.709,-1.057 -1.332,-2.212 -2.214,-3.105 -5.775,-5.84 -15.594,-7.843 -23.405,-3.209 -7.618,4.519 -10.824,11.525 -10.334,20.181 0.405,7.172 3.792,12.764 9.978,16.52 6.827,4.145 15.867,3.341 21.905,-1.888 5.008,-4.336 7.424,-9.87 7.525,-16.452 0.005,-0.31 -0.062,-0.66 -0.216,-0.921 -0.149,-0.256 -0.433,-0.566 -0.691,-0.6 -0.944,-0.126 -1.902,-0.197 -2.855,-0.198 -9.267,-0.013 -18.534,-10e-4 -27.801,-0.018 -1.099,-0.002 -2.243,0.229 -3.416,-0.458 -0.108,-1.878 0.519,-3.662 1.244,-5.412 0.93,-2.248 2.373,-4.136 4.127,-5.817 6.415,-6.144 16.816,-4.896 21.762,1.368 0.489,0.62 0.969,1.249 1.666,2.149" style="fill:#404e5b;fill-opacity:1;fill-rule:nonzero;stroke:none" transform="matrix(1.3333333,0,0,-1.3333333,1796.9712,1602.202)" clip-path="url(#clipPath48)"/>
    <path id="path49" d="m 0,0 v -0.046 c 4.626,0 9.252,-0.009 13.878,0.006 1.481,0.005 1.965,0.622 1.782,2.06 -0.352,2.763 -1.51,5.206 -3.101,7.424 -4.548,6.337 -12.307,7.738 -18.314,5.07 -5.536,-2.459 -8.508,-6.986 -9.406,-12.918 -0.133,-0.878 0.439,-1.588 1.285,-1.59 C -9.251,-0.007 -4.625,0 0,0 m 2.46,-3.505 c -5.429,0 -10.857,0.006 -16.285,-0.006 -0.883,-0.002 -1.386,-0.69 -1.215,-1.611 1.089,-5.882 4.215,-10.236 9.659,-12.85 4.496,-2.158 11.871,-1.616 16.427,3.008 0.666,0.676 1.194,1.488 1.784,2.238 0.816,1.037 1.113,1.07 2.443,0.714 1.354,-0.362 1.659,-1.221 0.82,-2.516 -1.145,-1.768 -2.563,-3.276 -4.288,-4.458 -9.314,-6.381 -21.242,-4.205 -27.475,4.935 -4.44,6.51 -5.216,13.664 -2.202,20.987 3.846,9.345 13.716,14.359 23.525,11.505 3.302,-0.96 6.099,-2.77 8.424,-5.264 3.866,-4.144 5.845,-9.07 5.851,-14.762 10e-4,-1.173 -0.563,-1.836 -1.66,-1.855 -1.437,-0.024 -2.874,-0.017 -4.311,-0.018 -3.833,-10e-4 -7.665,0 -11.497,0 z" style="fill:#404e5b;fill-opacity:1;fill-rule:nonzero;stroke:none" transform="matrix(1.3333333,0,0,-1.3333333,1426.8872,1602.1969)" clip-path="url(#clipPath50)"/>
    <path id="path51" d="m 0,0 c -1.42,-0.132 -3.319,-0.284 -5.211,-0.492 -2.113,-0.232 -3.956,-1.182 -5.633,-2.406 -2.7,-1.971 -3.629,-5.34 -2.501,-8.503 1.441,-4.038 4.405,-6.103 8.556,-6.49 1.568,-0.147 3.189,-0.074 4.751,0.144 2.875,0.402 5.502,1.506 7.784,3.339 2.348,1.886 3.868,4.177 3.615,7.359 -0.075,0.948 -0.005,1.906 -0.014,2.859 -0.017,1.67 -0.261,2.282 -2.393,2.902 C 6.166,-0.477 3.333,-0.309 0,0 m 11.64,-15.79 c -1.07,0.208 -1.62,-0.432 -2.218,-0.932 -3.171,-2.651 -6.922,-3.908 -10.926,-4.545 -2.74,-0.435 -5.439,-0.162 -8.029,0.787 -6.172,2.263 -8.518,7.957 -8.166,12.272 0.176,2.153 0.939,4.028 2.304,5.672 2.127,2.561 4.963,3.983 8.094,4.843 C -3.706,3.294 -0.036,3.4 3.639,2.846 6,2.49 8.343,2.015 10.671,1.598 c 0.217,0.284 0.561,0.526 0.563,0.771 0.018,1.595 0.066,3.2 -0.091,4.783 -0.422,4.265 -3.357,8.829 -9.789,9.541 -2.235,0.247 -4.442,0.045 -6.623,-0.678 -2.445,-0.811 -4.73,-1.904 -6.933,-3.216 -0.35,-0.209 -0.993,-0.306 -1.306,-0.122 -0.69,0.404 -1.132,1.112 -1.141,1.955 -0.003,0.278 0.179,0.666 0.404,0.824 3.716,2.625 7.82,4.299 12.345,4.873 2.747,0.349 5.465,-0.001 8.025,-0.964 4.47,-1.682 7.405,-4.894 8.705,-9.519 0.609,-2.167 0.781,-4.393 0.77,-6.645 -0.027,-5.595 0,-11.189 -0.01,-16.784 -0.002,-1.45 -0.013,-2.84 1.168,-3.995 0.372,-0.364 0.35,-1.179 0.414,-1.797 0.064,-0.62 -0.552,-1.263 -1.139,-1.301 -1.794,-0.115 -3.249,0.707 -3.803,2.284 -0.3,0.853 -0.409,1.773 -0.59,2.602" style="fill:#404e5b;fill-opacity:1;fill-rule:nonzero;stroke:none" transform="matrix(1.3333333,0,0,-1.3333333,1316.5388,1603.7736)" clip-path="url(#clipPath52)"/>
    <path id="path53" d="m 0,0 c 0.098,2.35 -1.216,6.202 -3.914,9.575 -5.336,6.672 -14.925,8.36 -21.833,1.439 -3.679,-3.686 -5.458,-8.127 -5.364,-13.379 0.098,-5.472 2.246,-9.904 6.426,-13.347 4.627,-3.811 11.15,-4.717 16.933,-0.895 C -2.56,-13.174 -0.159,-8.157 0,0 M 4.203,-1.979 C 3.996,-7.822 2.02,-13.236 -2.54,-17.545 c -7.585,-7.169 -20.38,-7.089 -27.741,1.831 -6.575,7.968 -6.786,20.558 0.773,28.592 7.571,8.046 19.466,8.404 27.388,0.556 C 2.025,9.329 3.963,4.407 4.203,-1.979" style="fill:#384654;fill-opacity:1;fill-rule:nonzero;stroke:none" transform="matrix(1.3333333,0,0,-1.3333333,1595.2737,1602.0791)" clip-path="url(#clipPath54)"/>
    <path id="path55" d="M 0,0 C 0.871,1.033 1.875,0.732 2.784,0.709 3.42,0.692 4.002,0.448 4.309,-0.238 c 1.235,-2.767 2.519,-5.513 3.745,-8.285 3.613,-8.168 7.207,-16.345 10.813,-24.517 0.249,-0.565 0.847,-0.916 1.084,-0.664 0.204,0.217 0.466,0.404 0.599,0.659 0.22,0.422 0.348,0.891 0.53,1.333 3.391,8.261 6.785,16.521 10.177,24.782 0.848,2.065 1.734,4.116 2.52,6.205 0.494,1.311 1.471,1.533 2.664,1.463 0.16,-0.009 0.318,-0.028 0.478,-0.038 0.862,-0.056 1.226,-0.616 0.978,-1.252 -1.274,-3.268 -2.583,-6.523 -3.931,-9.762 -5.456,-13.103 -10.929,-26.2 -16.403,-39.296 -0.43,-1.029 -0.873,-2.056 -1.373,-3.053 -1.075,-2.146 -2.812,-3.422 -5.196,-3.787 -0.473,-0.072 -0.952,-0.107 -1.429,-0.15 -1.908,-0.172 -2.551,0.533 -2.329,2.54 0.057,0.515 0.309,0.883 0.806,1.026 0.303,0.088 0.628,0.117 0.946,0.135 1.773,0.095 3.004,1.038 3.762,2.562 1.774,3.567 3.448,7.18 4.657,11.12 C 11.741,-26.069 5.689,-13.065 0,0" style="fill:#384654;fill-opacity:1;fill-rule:nonzero;stroke:none" transform="matrix(1.3333333,0,0,-1.3333333,2095.8683,1578.6177)" clip-path="url(#clipPath56)"/>
    <path id="path57" d="m 0,0 c -0.405,-0.061 -0.811,0.001 -0.991,-0.172 -0.806,-0.771 -1.523,-1.634 -2.316,-2.419 -3.183,-3.146 -7.049,-4.903 -11.453,-5.485 -1.101,-0.145 -2.241,-0.185 -3.345,-0.081 -4.483,0.423 -7.826,2.539 -9.691,6.752 -0.977,2.208 -1.626,4.501 -1.799,6.915 -0.068,0.956 -0.119,1.915 -0.12,2.872 -0.011,7.349 -0.01,14.698 -0.005,22.047 10e-4,0.477 0.014,0.967 0.128,1.425 0.07,0.282 0.298,0.674 0.533,0.739 0.914,0.255 1.877,0.412 2.739,-0.155 0.225,-0.149 0.408,-0.516 0.427,-0.796 0.074,-1.113 0.099,-2.232 0.101,-3.348 0.01,-5.911 0.027,-11.822 0.001,-17.733 -0.01,-2.249 0.186,-4.466 0.69,-6.656 0.108,-0.467 0.174,-0.945 0.309,-1.404 1.657,-5.649 5.967,-7.723 10.993,-6.884 5.943,0.991 10.119,4.482 12.739,9.85 0.712,1.461 0.794,3.062 0.785,4.68 -0.032,6.071 -0.015,12.142 -0.01,18.212 0.001,1.118 0.018,2.236 0.051,3.354 0.019,0.606 0.573,1.062 1.351,1.062 0.632,0 1.276,-0.044 1.889,-0.183 0.251,-0.057 0.59,-0.396 0.62,-0.64 0.116,-0.944 0.166,-1.902 0.167,-2.855 0.01,-9.106 0.005,-18.212 0.008,-27.318 0,-1.278 -0.049,-2.562 0.064,-3.83 0.053,-0.588 0.42,-1.155 0.684,-1.713 0.134,-0.283 0.387,-0.51 0.529,-0.791 C 5.547,-5.484 5.429,-6.914 4.835,-7.212 4.076,-7.592 3.281,-7.511 2.528,-7.168 1.28,-6.599 0.45,-5.623 0.267,-4.277 0.075,-2.869 0.081,-1.434 0,0" style="fill:#384654;fill-opacity:1;fill-rule:nonzero;stroke:none" transform="matrix(1.3333333,0,0,-1.3333333,1950.5643,1621.3656)" clip-path="url(#clipPath58)"/>
    <path id="path59" d="m 0,0 c 4.218,-0.535 3.739,-1.912 2.071,-3.95 -4.409,-5.386 -10.27,-7.541 -17.041,-6.707 -8.954,1.104 -16.032,8.481 -17.252,17.434 -0.505,3.701 -0.27,7.317 0.951,10.861 3.388,9.836 13.74,15.745 24.716,12.328 3.929,-1.223 7.079,-3.621 9.144,-7.29 C 3.046,21.865 2.798,21.227 1.804,20.885 1.351,20.73 0.887,20.53 0.422,20.513 c -0.444,-0.016 -1.026,0.039 -1.317,0.31 -0.694,0.645 -1.219,1.467 -1.871,2.163 -4.598,4.915 -12.802,5.843 -18.807,1.417 -3.65,-2.691 -5.83,-6.354 -6.588,-10.765 -0.81,-4.717 -0.073,-9.23 2.565,-13.324 2.148,-3.336 5.026,-5.745 8.895,-6.845 5.692,-1.619 11.676,0.281 15.478,4.908 C -0.824,-1.138 -0.465,-0.62 0,0" style="fill:#384654;fill-opacity:1;fill-rule:nonzero;stroke:none" transform="matrix(1.3333333,0,0,-1.3333333,1884.7879,1617.8535)" clip-path="url(#clipPath60)"/>
    <path id="path61" d="m 0,0 c 1.291,0.065 2.709,0.136 4.214,0.212 0.202,0.445 0.491,0.835 0.548,1.256 0.193,1.422 0.254,2.863 0.459,4.282 0.275,1.907 0.904,3.706 1.778,5.432 1.735,3.428 4.551,5.305 8.312,5.653 2.742,0.254 5.404,-0.231 7.842,-1.633 1.099,-0.632 1.263,-1.718 0.377,-2.821 -0.314,-0.39 -0.749,-0.613 -1.254,-0.459 -1.213,0.37 -2.39,0.904 -3.626,1.142 C 15.281,13.712 12.03,12.452 10.395,8.889 9.225,6.34 8.97,3.682 9.241,0.945 9.264,0.712 9.598,0.381 9.842,0.324 10.45,0.181 11.088,0.122 11.715,0.115 c 2.395,-0.026 4.79,0.011 7.184,-0.048 0.414,-0.01 0.909,-0.286 1.208,-0.593 0.428,-0.441 0.401,-1.885 0.029,-2.26 C 19.924,-3 19.627,-3.209 19.343,-3.252 18.716,-3.345 18.073,-3.353 17.437,-3.357 15.521,-3.37 13.605,-3.352 11.689,-3.37 9.778,-3.389 9.041,-3.546 9.075,-5.759 9.095,-7.035 9.069,-8.313 9.068,-9.59 c -10e-4,-8.301 0,-16.602 0,-24.903 0,-1.117 -0.017,-2.235 -10e-4,-3.352 0.031,-2.161 -0.786,-2.619 -3.092,-2.232 -0.384,0.064 -0.93,0.517 -0.995,0.866 -0.173,0.93 -0.158,1.901 -0.159,2.856 -0.009,9.099 -0.002,18.198 -0.009,27.297 -0.001,1.436 -0.037,2.872 -0.077,4.307 -0.018,0.657 -0.538,1.227 -1.148,1.274 -1.111,0.084 -2.224,0.135 -3.335,0.223 -0.537,0.043 -0.964,0.697 -1,1.43 C -0.781,-1.159 -0.634,-0.568 0,0" style="fill:#404e5b;fill-opacity:1;fill-rule:nonzero;stroke:none" transform="matrix(1.3333333,0,0,-1.3333333,1506.9076,1577.7285)" clip-path="url(#clipPath62)"/>
    <path id="path63" d="m 0,0 c -1.135,0.082 -2.394,0.166 -3.65,0.267 -1.061,0.085 -1.534,0.792 -1.387,2.042 0.088,0.743 0.5,1.181 1.197,1.223 1.27,0.076 2.54,0.133 3.698,0.192 0.655,0.527 0.713,1.148 0.715,1.796 0.01,3.354 0.011,6.708 0.044,10.062 0.012,1.168 0.502,1.549 1.876,1.579 0.16,0.004 0.32,0.004 0.48,-0.001 C 3.905,17.129 4.465,16.624 4.475,15.72 4.508,12.846 4.51,9.971 4.531,7.096 4.538,6.298 4.483,5.483 4.632,4.71 4.704,4.343 5.166,3.807 5.493,3.775 6.918,3.635 8.359,3.65 9.794,3.611 10.751,3.585 11.708,3.577 12.665,3.535 13.5,3.499 13.934,2.899 13.913,1.862 13.892,0.881 13.413,0.296 12.534,0.274 10.778,0.23 9.021,0.241 7.265,0.192 6.635,0.174 5.994,0.099 5.385,-0.056 5.134,-0.12 4.811,-0.436 4.766,-0.682 4.625,-1.455 4.541,-2.249 4.539,-3.034 4.524,-11.022 4.529,-19.009 4.531,-26.996 c 0,-0.639 -0.022,-1.281 0.026,-1.916 0.269,-3.537 3,-4.797 5.58,-4.603 1.405,0.106 2.782,0.657 4.156,1.059 1.28,0.376 1.574,0.27 2.167,-0.986 0.388,-0.823 0.156,-1.652 -0.56,-2.037 -1.997,-1.074 -4.145,-1.649 -6.381,-1.91 -1.628,-0.19 -3.201,0.129 -4.677,0.778 -2.544,1.117 -4.053,3.048 -4.22,5.879 -0.074,1.274 -0.042,2.555 -0.043,3.833 -0.003,7.828 0.006,15.655 -0.011,23.482 C 0.565,-2.32 0.794,-1.173 0,0" style="fill:#384654;fill-opacity:1;fill-rule:nonzero;stroke:none" transform="matrix(1.3333333,0,0,-1.3333333,2059.9508,1582.4308)" clip-path="url(#clipPath64)"/>
    <path id="path65" d="M 0,0 C 0.357,-0.608 0.678,-1.132 0.977,-1.669 1.249,-2.158 1.042,-2.602 0.742,-2.976 0.551,-3.214 0.269,-3.398 -0.003,-3.55 c -1.7,-0.945 -3.568,-1.386 -5.46,-1.695 -1.598,-0.26 -3.159,-0.021 -4.719,0.472 -2.336,0.738 -4.877,3.129 -4.834,6.443 0.016,1.277 -0.013,2.555 -0.014,3.833 -0.001,7.828 0,15.655 -0.004,23.483 0,0.638 -0.024,1.277 -0.055,1.915 -0.034,0.691 -0.505,1.223 -1.155,1.273 -1.112,0.085 -2.227,0.129 -3.339,0.215 -0.555,0.042 -1.036,0.675 -1.083,1.367 -0.01,0.159 -0.008,0.319 -0.004,0.479 0.02,0.726 0.48,1.309 1.072,1.349 1.272,0.087 2.549,0.133 3.814,0.273 0.242,0.027 0.588,0.384 0.635,0.636 0.117,0.622 0.111,1.27 0.114,1.908 0.011,2.875 0.027,5.751 0.005,8.626 -0.018,2.261 0.945,2.423 3.188,2.064 0.127,-0.021 0.235,-0.188 0.34,-0.299 0.109,-0.116 0.279,-0.24 0.29,-0.372 0.065,-0.794 0.119,-1.592 0.127,-2.389 0.029,-3.034 0.035,-6.069 0.062,-9.103 0.005,-0.627 0.559,-1.159 1.227,-1.174 2.234,-0.05 4.469,-0.068 6.703,-0.125 1.021,-0.026 1.535,-0.805 1.397,-2.02 -0.071,-0.633 -0.637,-1.226 -1.228,-1.247 -0.957,-0.033 -1.914,-0.063 -2.871,-0.081 -1.278,-0.023 -2.556,-0.016 -3.833,-0.053 -0.813,-0.024 -1.396,-0.679 -1.406,-1.6 -0.029,-2.555 -0.041,-5.111 -0.044,-7.666 -0.005,-5.592 -0.002,-11.183 0,-16.774 0,-0.958 -0.017,-1.918 0.022,-2.875 0.162,-3.901 3.453,-5.019 5.913,-4.753 0.945,0.103 1.873,0.4 2.795,0.657 C -1.606,-0.577 -0.885,-0.298 0,0" style="fill:#384654;fill-opacity:1;fill-rule:nonzero;stroke:none" transform="matrix(1.3333333,0,0,-1.3333333,1384.556,1625.1967)" clip-path="url(#clipPath66)"/>
    <path id="path67" d="m 0,0 c 0,5.594 -0.002,11.188 0.003,16.781 0,0.639 0.028,1.277 0.06,1.915 0.033,0.663 0.522,1.196 1.189,1.262 0.474,0.047 0.956,0.054 1.432,0.035 0.711,-0.027 1.287,-0.52 1.304,-1.119 0.036,-1.277 0.023,-2.556 0.081,-3.833 0.02,-0.462 0.17,-0.922 0.294,-1.374 0.094,-0.341 0.398,-0.497 0.751,-0.323 0.407,0.201 0.806,0.46 1.136,0.771 0.928,0.876 1.75,1.878 2.738,2.676 2.543,2.053 5.372,3.43 8.753,3.354 1.099,-0.024 1.658,-0.636 1.576,-1.866 C 19.23,16.971 18.859,16.533 17.733,16.276 16.336,15.956 14.907,15.712 13.566,15.229 10.469,14.114 8,12.152 6.218,9.355 4.901,7.287 4.164,5.095 4.199,2.584 c 0.083,-5.912 0.027,-11.826 0.025,-17.74 0,-1.118 0.008,-2.237 -0.025,-3.355 -0.04,-1.356 -0.626,-1.809 -2.227,-1.755 -0.315,0.011 -0.627,0.088 -0.942,0.126 -0.576,0.069 -0.851,0.536 -0.907,0.97 -0.121,0.946 -0.117,1.911 -0.119,2.868 C -0.005,-10.868 0,-5.434 0,0" style="fill:#404e5b;fill-opacity:1;fill-rule:nonzero;stroke:none" transform="matrix(1.3333333,0,0,-1.3333333,1981.6131,1604.2937)" clip-path="url(#clipPath68)"/>
    <path id="path69" d="M 0,0 C 0.547,0.189 1.076,0.217 1.357,0.496 2.486,1.618 3.443,2.928 4.639,3.965 7.098,6.096 9.885,7.591 13.261,7.612 13.578,7.614 13.906,7.598 14.208,7.515 14.679,7.384 15.067,7.113 15.103,6.566 15.133,6.092 15.22,5.589 15.099,5.149 14.984,4.731 14.715,4.2 14.366,4.037 13.809,3.778 13.127,3.79 12.501,3.675 8.927,3.019 5.889,1.39 3.494,-1.362 1.22,-3.976 -0.077,-6.927 -0.023,-10.497 c 0.097,-6.384 0.034,-12.77 0.018,-19.155 -0.002,-0.789 -0.079,-1.586 -0.224,-2.36 -0.045,-0.237 -0.413,-0.546 -0.669,-0.584 -0.621,-0.093 -1.262,-0.047 -1.895,-0.054 -0.579,-0.006 -0.863,0.428 -1.008,0.855 -0.149,0.439 -0.137,0.944 -0.137,1.421 -0.007,11.812 -0.007,23.625 -0.002,35.437 0,0.477 0.009,0.966 0.114,1.427 0.065,0.285 0.265,0.6 0.5,0.775 0.528,0.394 2.334,0.3 2.719,-0.125 C -0.408,6.921 -0.204,6.61 -0.192,6.333 -0.102,4.277 -0.061,2.219 0,0" style="fill:#384654;fill-opacity:1;fill-rule:nonzero;stroke:none" transform="matrix(1.3333333,0,0,-1.3333333,1628.3461,1587.6356)" clip-path="url(#clipPath70)"/>
    <path id="path71" d="m 0,0 c 1.049,0.556 1.996,0.505 2.929,0.246 0.265,-0.074 0.621,-0.345 0.667,-0.578 0.152,-0.769 0.247,-1.561 0.248,-2.345 0.016,-9.261 0.012,-18.522 0.01,-27.784 -10e-4,-2.554 0.002,-5.109 -0.027,-7.663 -0.014,-1.186 -0.544,-1.673 -1.796,-1.694 -0.47,-0.008 -0.959,0.023 -1.405,0.153 -0.258,0.075 -0.555,0.343 -0.646,0.593 -0.16,0.436 -0.239,0.924 -0.239,1.391 -0.012,11.975 -0.014,23.951 0.002,35.927 C -0.256,-1.137 -0.08,-0.521 0,0" style="fill:#384654;fill-opacity:1;fill-rule:nonzero;stroke:none" transform="matrix(1.3333333,0,0,-1.3333333,2027.2013,1578.1832)" clip-path="url(#clipPath72)"/>
    <path id="path73" d="M 0,0 C -1.753,0 -3.506,-0.019 -5.259,0.008 -6.123,0.021 -6.681,0.639 -6.71,1.552 -6.739,2.508 -6.72,3.465 -6.746,4.421 -6.802,6.505 -5.871,7.206 -3.63,6.477 -1.852,5.898 -0.02,5.387 1.486,4.051 2.773,2.91 4.366,2.117 5.79,1.121 5.987,0.984 6.005,0.568 6.061,0.273 6.07,0.224 5.843,0.068 5.724,0.068 3.816,0.054 1.909,0.058 0.001,0.058 0.001,0.039 0,0.019 0,0" style="fill:#bfc4c8;fill-opacity:1;fill-rule:nonzero;stroke:none" transform="matrix(1.3333333,0,0,-1.3333333,938.44333,1264.062)" clip-path="url(#clipPath74)"/>
    <path id="path75" d="M 0,0 C 0,0.639 -0.016,1.279 0.003,1.918 0.05,3.538 1.904,4.411 3.511,3.543 3.758,3.409 4.029,3.06 4.043,2.797 4.127,1.205 4.169,-0.392 4.167,-1.987 4.165,-3.08 3.543,-3.603 2.279,-3.624 1.81,-3.632 1.32,-3.588 0.877,-3.449 0.615,-3.367 0.409,-3.068 0.215,-2.836 0.122,-2.725 0.081,-2.543 0.079,-2.392 0.066,-1.595 0.073,-0.797 0.073,0 0.049,0 0.024,0 0,0" style="fill:#404e5b;fill-opacity:1;fill-rule:nonzero;stroke:none" transform="matrix(1.3333333,0,0,-1.3333333,2026.7891,1560.9925)" clip-path="url(#clipPath76)"/>
    <path id="path77" d="m 0,0 c 1.845,0.015 3.691,0.024 5.536,0.049 0.676,0.009 1.146,0.33 1.341,1.002 1.107,0.136 2.191,0.057 3.192,-0.467 0.534,-0.28 1.101,-0.597 0.87,-1.394 -0.253,-0.081 -0.551,-0.264 -0.843,-0.254 -2.969,0.106 -5.94,0.219 -8.905,0.4 C 0.782,-0.639 0.396,-0.231 0,0" style="fill:#959ea4;fill-opacity:1;fill-rule:nonzero;stroke:none" transform="matrix(1.3333333,0,0,-1.3333333,1043.3515,1045.2707)" clip-path="url(#clipPath78)"/>
    <path id="path79" d="m 0,0 0.851,-0.778 c -1.893,-1.015 -3.905,-1.038 -6.26,-0.798 0.42,0.33 0.622,0.626 0.832,0.632 C -2.99,-0.906 -1.659,0.353 0,0" style="fill:#ef4638;fill-opacity:1;fill-rule:nonzero;stroke:none" transform="matrix(1.3333333,0,0,-1.3333333,682.46147,1106.8889)" clip-path="url(#clipPath80)"/>
    <path id="path81" d="m 0,0 c 0.428,-0.024 0.855,-0.047 1.283,-0.071 -0.73,-1.231 -1.741,-2.125 -3.119,-2.56 -0.088,-0.028 -0.272,0.118 -0.35,0.227 -0.074,0.103 -0.124,0.282 -0.088,0.398 C -1.929,-0.877 -1.128,-0.249 0,0" style="fill:#ef4638;fill-opacity:1;fill-rule:nonzero;stroke:none" transform="matrix(1.3333333,0,0,-1.3333333,829.034,1524.9739)" clip-path="url(#clipPath82)"/>
    <path id="path83" d="M 0,0 C -1.102,-0.24 -2.096,-0.119 -2.838,0.847 -1.77,0.973 -0.694,1.127 0,0" style="fill:#959ea4;fill-opacity:1;fill-rule:nonzero;stroke:none" transform="matrix(1.3333333,0,0,-1.3333333,1052.2755,1043.8081)" clip-path="url(#clipPath84)"/>
  </g>
</svg>